<?xml version='1.0' encoding='ASCII' standalone='yes'?>
<svg xmlns:xlink="http://www.w3.org/1999/xlink" xmlns="http://www.w3.org/2000/svg" version="1.1" width="16cm" viewbox="0 0 16cm 6.5cm" height="6.5cm">
  <g>
    <g><defs>
  <style type="text/css">
*{stroke-linecap:butt;stroke-linejoin:round;stroke-miterlimit:100000;}
  </style>
 </defs>
 <g id="figure_1">
  <g id="patch_1">
   <path d="M 0 216  L 360 216  L 360 0  L 0 0  z " style="fill:#ffffff;"/>
  </g>
  <g id="axes_1">
   <g id="patch_2">
    <path d="M 64.8 172.8  L 262.8 172.8  L 262.8 32.4  L 64.8 32.4  z " style="fill:#ffffff;"/>
   </g>
   <g id="line2d_1">
    <defs>
     <path d="M 0 1  C 0.265203 1 0.51958 0.894634 0.707107 0.707107  C 0.894634 0.51958 1 0.265203 1 0  C 1 -0.265203 0.894634 -0.51958 0.707107 -0.707107  C 0.51958 -0.894634 0.265203 -1 0 -1  C -0.265203 -1 -0.51958 -0.894634 -0.707107 -0.707107  C -0.894634 -0.51958 -1 -0.265203 -1 0  C -1 0.265203 -0.894634 0.51958 -0.707107 0.707107  C -0.51958 0.894634 -0.265203 1 0 1  z " id="ma2b0e09244" style="stroke:#000000;stroke-width:0.5;"/>
    </defs>
    <g>
     <use style="stroke:#000000;stroke-width:0.5;" x="64.8" xlink:href="#ma2b0e09244" y="129.938432715"/>
     <use style="stroke:#000000;stroke-width:0.5;" x="68.1" xlink:href="#ma2b0e09244" y="157.125999449"/>
     <use style="stroke:#000000;stroke-width:0.5;" x="71.4" xlink:href="#ma2b0e09244" y="113.951122628"/>
     <use style="stroke:#000000;stroke-width:0.5;" x="74.7" xlink:href="#ma2b0e09244" y="142.466783446"/>
     <use style="stroke:#000000;stroke-width:0.5;" x="78.0" xlink:href="#ma2b0e09244" y="149.010929246"/>
     <use style="stroke:#000000;stroke-width:0.5;" x="81.3" xlink:href="#ma2b0e09244" y="122.448121867"/>
     <use style="stroke:#000000;stroke-width:0.5;" x="84.6" xlink:href="#ma2b0e09244" y="122.698290699"/>
     <use style="stroke:#000000;stroke-width:0.5;" x="87.9" xlink:href="#ma2b0e09244" y="147.01984835"/>
     <use style="stroke:#000000;stroke-width:0.5;" x="91.2" xlink:href="#ma2b0e09244" y="136.045018339"/>
     <use style="stroke:#000000;stroke-width:0.5;" x="94.5" xlink:href="#ma2b0e09244" y="172.8"/>
     <use style="stroke:#000000;stroke-width:0.5;" x="97.8" xlink:href="#ma2b0e09244" y="116.756946415"/>
     <use style="stroke:#000000;stroke-width:0.5;" x="101.1" xlink:href="#ma2b0e09244" y="118.938748282"/>
     <use style="stroke:#000000;stroke-width:0.5;" x="104.4" xlink:href="#ma2b0e09244" y="119.09828205"/>
     <use style="stroke:#000000;stroke-width:0.5;" x="107.7" xlink:href="#ma2b0e09244" y="167.37555792"/>
     <use style="stroke:#000000;stroke-width:0.5;" x="111.0" xlink:href="#ma2b0e09244" y="139.061501571"/>
     <use style="stroke:#000000;stroke-width:0.5;" x="114.3" xlink:href="#ma2b0e09244" y="132.832500631"/>
     <use style="stroke:#000000;stroke-width:0.5;" x="117.6" xlink:href="#ma2b0e09244" y="125.402719584"/>
     <use style="stroke:#000000;stroke-width:0.5;" x="120.9" xlink:href="#ma2b0e09244" y="126.392799927"/>
     <use style="stroke:#000000;stroke-width:0.5;" x="124.2" xlink:href="#ma2b0e09244" y="108.41269602"/>
     <use style="stroke:#000000;stroke-width:0.5;" x="127.5" xlink:href="#ma2b0e09244" y="154.31210561"/>
     <use style="stroke:#000000;stroke-width:0.5;" x="130.8" xlink:href="#ma2b0e09244" y="130.931357646"/>
     <use style="stroke:#000000;stroke-width:0.5;" x="134.1" xlink:href="#ma2b0e09244" y="136.899550331"/>
     <use style="stroke:#000000;stroke-width:0.5;" x="137.4" xlink:href="#ma2b0e09244" y="121.322730441"/>
     <use style="stroke:#000000;stroke-width:0.5;" x="140.7" xlink:href="#ma2b0e09244" y="113.606768631"/>
     <use style="stroke:#000000;stroke-width:0.5;" x="144.0" xlink:href="#ma2b0e09244" y="99.0727044382"/>
     <use style="stroke:#000000;stroke-width:0.5;" x="147.3" xlink:href="#ma2b0e09244" y="126.249690965"/>
     <use style="stroke:#000000;stroke-width:0.5;" x="150.6" xlink:href="#ma2b0e09244" y="105.1243736"/>
     <use style="stroke:#000000;stroke-width:0.5;" x="153.9" xlink:href="#ma2b0e09244" y="143.53246622"/>
     <use style="stroke:#000000;stroke-width:0.5;" x="157.2" xlink:href="#ma2b0e09244" y="114.058025699"/>
     <use style="stroke:#000000;stroke-width:0.5;" x="160.5" xlink:href="#ma2b0e09244" y="90.8775318395"/>
     <use style="stroke:#000000;stroke-width:0.5;" x="163.8" xlink:href="#ma2b0e09244" y="111.878910892"/>
     <use style="stroke:#000000;stroke-width:0.5;" x="167.1" xlink:href="#ma2b0e09244" y="96.8146497936"/>
     <use style="stroke:#000000;stroke-width:0.5;" x="170.4" xlink:href="#ma2b0e09244" y="82.1066490348"/>
     <use style="stroke:#000000;stroke-width:0.5;" x="173.7" xlink:href="#ma2b0e09244" y="79.0580846498"/>
     <use style="stroke:#000000;stroke-width:0.5;" x="177.0" xlink:href="#ma2b0e09244" y="78.9848498794"/>
     <use style="stroke:#000000;stroke-width:0.5;" x="180.3" xlink:href="#ma2b0e09244" y="92.1461611954"/>
     <use style="stroke:#000000;stroke-width:0.5;" x="183.6" xlink:href="#ma2b0e09244" y="85.1540714662"/>
     <use style="stroke:#000000;stroke-width:0.5;" x="186.9" xlink:href="#ma2b0e09244" y="89.6635348927"/>
     <use style="stroke:#000000;stroke-width:0.5;" x="190.2" xlink:href="#ma2b0e09244" y="67.8461116979"/>
     <use style="stroke:#000000;stroke-width:0.5;" x="193.5" xlink:href="#ma2b0e09244" y="39.8623882779"/>
     <use style="stroke:#000000;stroke-width:0.5;" x="196.8" xlink:href="#ma2b0e09244" y="75.4624428269"/>
     <use style="stroke:#000000;stroke-width:0.5;" x="200.1" xlink:href="#ma2b0e09244" y="83.7910870845"/>
     <use style="stroke:#000000;stroke-width:0.5;" x="203.4" xlink:href="#ma2b0e09244" y="71.8588180281"/>
     <use style="stroke:#000000;stroke-width:0.5;" x="206.7" xlink:href="#ma2b0e09244" y="104.642987073"/>
     <use style="stroke:#000000;stroke-width:0.5;" x="210.0" xlink:href="#ma2b0e09244" y="64.8274818269"/>
     <use style="stroke:#000000;stroke-width:0.5;" x="213.3" xlink:href="#ma2b0e09244" y="82.0935828514"/>
     <use style="stroke:#000000;stroke-width:0.5;" x="216.6" xlink:href="#ma2b0e09244" y="68.2458721538"/>
     <use style="stroke:#000000;stroke-width:0.5;" x="219.9" xlink:href="#ma2b0e09244" y="64.4800678492"/>
     <use style="stroke:#000000;stroke-width:0.5;" x="223.2" xlink:href="#ma2b0e09244" y="51.2978278089"/>
     <use style="stroke:#000000;stroke-width:0.5;" x="226.5" xlink:href="#ma2b0e09244" y="59.2042779423"/>
     <use style="stroke:#000000;stroke-width:0.5;" x="229.8" xlink:href="#ma2b0e09244" y="48.0888292947"/>
     <use style="stroke:#000000;stroke-width:0.5;" x="233.1" xlink:href="#ma2b0e09244" y="84.8792045428"/>
     <use style="stroke:#000000;stroke-width:0.5;" x="236.4" xlink:href="#ma2b0e09244" y="83.5086954401"/>
     <use style="stroke:#000000;stroke-width:0.5;" x="239.7" xlink:href="#ma2b0e09244" y="61.5854763871"/>
     <use style="stroke:#000000;stroke-width:0.5;" x="243.0" xlink:href="#ma2b0e09244" y="68.4307073642"/>
     <use style="stroke:#000000;stroke-width:0.5;" x="246.3" xlink:href="#ma2b0e09244" y="61.3735826598"/>
     <use style="stroke:#000000;stroke-width:0.5;" x="249.6" xlink:href="#ma2b0e09244" y="52.813389818"/>
     <use style="stroke:#000000;stroke-width:0.5;" x="252.9" xlink:href="#ma2b0e09244" y="58.8801632751"/>
     <use style="stroke:#000000;stroke-width:0.5;" x="256.2" xlink:href="#ma2b0e09244" y="48.7286797861"/>
     <use style="stroke:#000000;stroke-width:0.5;" x="259.5" xlink:href="#ma2b0e09244" y="32.4"/>
     <use style="stroke:#000000;stroke-width:0.5;" x="262.8" xlink:href="#ma2b0e09244" y="73.5462259821"/>
    </g>
   </g>
   <g id="line2d_2">
    <path clip-path="url(#p693a9927f2)" d="M 62.6 137.733362  L 64.822222 137.675416  L 67.044444 137.611407  L 69.266667 137.540712  L 71.488889 137.462645  L 73.711111 137.376456  L 75.933333 137.281318  L 78.155556 137.176328  L 80.377778 137.060496  L 82.6 136.932737  L 84.822222 136.791869  L 87.044444 136.6366  L 89.266667 136.465523  L 91.488889 136.277109  L 93.711111 136.069697  L 95.933333 135.841488  L 98.155556 135.590539  L 100.377778 135.314753  L 102.6 135.011879  L 104.822222 134.679504  L 107.044444 134.315053  L 109.266667 133.91579  L 111.488889 133.47882  L 113.711111 133.001097  L 115.933333 132.479433  L 118.155556 131.91052  L 120.377778 131.290947  L 122.6 130.617233  L 124.822222 129.88586  L 127.044444 129.093324  L 129.266667 128.236186  L 131.488889 127.311133  L 133.711111 126.315059  L 135.933333 125.245136  L 138.155556 124.098916  L 140.377778 122.874417  L 142.6 121.570233  L 144.822222 120.185629  L 147.044444 118.72065  L 149.266667 117.176209  L 151.488889 115.554173  L 153.711111 113.857431  L 155.933333 112.089936  L 158.155556 110.25673  L 160.377778 108.363924  L 162.6 106.418662  L 164.822222 104.429033  L 167.044444 102.40396  L 169.266667 100.353055  L 171.488889 98.28644  L 173.711111 96.214551  L 175.933333 94.147935  L 178.155556 92.09703  L 180.377778 90.071958  L 182.6 88.082329  L 184.822222 86.137066  L 187.044444 84.244261  L 189.266667 82.411054  L 191.488889 80.64356  L 193.711111 78.946817  L 195.933333 77.324782  L 198.155556 75.780341  L 200.377778 74.315361  L 202.6 72.930758  L 204.822222 71.626573  L 207.044444 70.402075  L 209.266667 69.255854  L 211.488889 68.185932  L 213.711111 67.189857  L 215.933333 66.264805  L 218.155556 65.407666  L 220.377778 64.615131  L 222.6 63.883758  L 224.822222 63.210043  L 227.044444 62.59047  L 229.266667 62.021557  L 231.488889 61.499894  L 233.711111 61.02217  L 235.933333 60.5852  L 238.155556 60.185938  L 240.377778 59.821487  L 242.6 59.489112  L 244.822222 59.186238  L 247.044444 58.910452  L 249.266667 58.659502  L 251.488889 58.431293  L 253.711111 58.223882  L 255.933333 58.035468  L 258.155556 57.864391  L 260.377778 57.709122  L 262.6 57.568254  L 264.822222 57.440495  L 267.044444 57.324662  L 269.266667 57.219672  L 271.488889 57.124535  L 273.711111 57.038345  L 275.933333 56.960279  L 278.155556 56.889584  L 280.377778 56.825575  L 282.6 56.767629  " style="fill:none;stroke:#ff0000;stroke-linecap:square;stroke-width:0.8;"/>
   </g>
   <g id="patch_3">
    <path d="M 64.8 192.8  L 262.8 192.8  " style="fill:none;stroke:#000000;stroke-linecap:square;stroke-linejoin:miter;stroke-width:0.5;"/>
   </g>
   <g id="patch_4">
    <path d="M 34.8 172.8  L 34.8 32.4  " style="fill:none;stroke:#000000;stroke-linecap:square;stroke-linejoin:miter;stroke-width:0.5;"/>
   </g>
   <g id="matplotlib.axis_1">
    <g id="xtick_1">
     <g id="line2d_3">
      <defs>
       <path d="M 0 0  L 0 -2  " id="m1ec71f004c" style="stroke:#000000;stroke-width:0.5;"/>
      </defs>
      <g>
       <use style="stroke:#000000;stroke-width:0.5;" x="106.6" xlink:href="#m1ec71f004c" y="192.8"/>
      </g>
     </g>
     <g id="text_1">
      <!-- 2 -->
      <defs>
       <path d="M 19.1875 8.296875  L 53.609375 8.296875  L 53.609375 0  L 7.328125 0  L 7.328125 8.296875  Q 12.9375 14.109375 22.625 23.890625  Q 32.328125 33.6875 34.8125 36.53125  Q 39.546875 41.84375 41.421875 45.53125  Q 43.3125 49.21875 43.3125 52.78125  Q 43.3125 58.59375 39.234375 62.25  Q 35.15625 65.921875 28.609375 65.921875  Q 23.96875 65.921875 18.8125 64.3125  Q 13.671875 62.703125 7.8125 59.421875  L 7.8125 69.390625  Q 13.765625 71.78125 18.9375 73  Q 24.125 74.21875 28.421875 74.21875  Q 39.75 74.21875 46.484375 68.546875  Q 53.21875 62.890625 53.21875 53.421875  Q 53.21875 48.921875 51.53125 44.890625  Q 49.859375 40.875 45.40625 35.40625  Q 44.1875 33.984375 37.640625 27.21875  Q 31.109375 20.453125 19.1875 8.296875  " id="BitstreamVeraSans-Roman-32"/>
      </defs>
      <g transform="translate(104.055 202.87875)scale(0.08 -0.08)">
       <use xlink:href="#BitstreamVeraSans-Roman-32"/>
      </g>
     </g>
    </g>
    <g id="xtick_2">
     <g id="line2d_4">
      <g>
       <use style="stroke:#000000;stroke-width:0.5;" x="150.6" xlink:href="#m1ec71f004c" y="192.8"/>
      </g>
     </g>
     <g id="text_2">
      <!-- 4 -->
      <defs>
       <path d="M 37.796875 64.3125  L 12.890625 25.390625  L 37.796875 25.390625  z M 35.203125 72.90625  L 47.609375 72.90625  L 47.609375 25.390625  L 58.015625 25.390625  L 58.015625 17.1875  L 47.609375 17.1875  L 47.609375 0  L 37.796875 0  L 37.796875 17.1875  L 4.890625 17.1875  L 4.890625 26.703125  z " id="BitstreamVeraSans-Roman-34"/>
      </defs>
      <g transform="translate(148.055 202.87875)scale(0.08 -0.08)">
       <use xlink:href="#BitstreamVeraSans-Roman-34"/>
      </g>
     </g>
    </g>
    <g id="xtick_3">
     <g id="line2d_5">
      <g>
       <use style="stroke:#000000;stroke-width:0.5;" x="194.6" xlink:href="#m1ec71f004c" y="192.8"/>
      </g>
     </g>
     <g id="text_3">
      <!-- 6 -->
      <defs>
       <path d="M 33.015625 40.375  Q 26.375 40.375 22.484375 35.828125  Q 18.609375 31.296875 18.609375 23.390625  Q 18.609375 15.53125 22.484375 10.953125  Q 26.375 6.390625 33.015625 6.390625  Q 39.65625 6.390625 43.53125 10.953125  Q 47.40625 15.53125 47.40625 23.390625  Q 47.40625 31.296875 43.53125 35.828125  Q 39.65625 40.375 33.015625 40.375  M 52.59375 71.296875  L 52.59375 62.3125  Q 48.875 64.0625 45.09375 64.984375  Q 41.3125 65.921875 37.59375 65.921875  Q 27.828125 65.921875 22.671875 59.328125  Q 17.53125 52.734375 16.796875 39.40625  Q 19.671875 43.65625 24.015625 45.921875  Q 28.375 48.1875 33.59375 48.1875  Q 44.578125 48.1875 50.953125 41.515625  Q 57.328125 34.859375 57.328125 23.390625  Q 57.328125 12.15625 50.6875 5.359375  Q 44.046875 -1.421875 33.015625 -1.421875  Q 20.359375 -1.421875 13.671875 8.265625  Q 6.984375 17.96875 6.984375 36.375  Q 6.984375 53.65625 15.1875 63.9375  Q 23.390625 74.21875 37.203125 74.21875  Q 40.921875 74.21875 44.703125 73.484375  Q 48.484375 72.75 52.59375 71.296875  " id="BitstreamVeraSans-Roman-36"/>
      </defs>
      <g transform="translate(192.055 202.87875)scale(0.08 -0.08)">
       <use xlink:href="#BitstreamVeraSans-Roman-36"/>
      </g>
     </g>
    </g>
    <g id="xtick_4">
     <g id="line2d_6">
      <g>
       <use style="stroke:#000000;stroke-width:0.5;" x="238.6" xlink:href="#m1ec71f004c" y="192.8"/>
      </g>
     </g>
     <g id="text_4">
      <!-- 8 -->
      <defs>
       <path d="M 31.78125 34.625  Q 24.75 34.625 20.71875 30.859375  Q 16.703125 27.09375 16.703125 20.515625  Q 16.703125 13.921875 20.71875 10.15625  Q 24.75 6.390625 31.78125 6.390625  Q 38.8125 6.390625 42.859375 10.171875  Q 46.921875 13.96875 46.921875 20.515625  Q 46.921875 27.09375 42.890625 30.859375  Q 38.875 34.625 31.78125 34.625  M 21.921875 38.8125  Q 15.578125 40.375 12.03125 44.71875  Q 8.5 49.078125 8.5 55.328125  Q 8.5 64.0625 14.71875 69.140625  Q 20.953125 74.21875 31.78125 74.21875  Q 42.671875 74.21875 48.875 69.140625  Q 55.078125 64.0625 55.078125 55.328125  Q 55.078125 49.078125 51.53125 44.71875  Q 48 40.375 41.703125 38.8125  Q 48.828125 37.15625 52.796875 32.3125  Q 56.78125 27.484375 56.78125 20.515625  Q 56.78125 9.90625 50.3125 4.234375  Q 43.84375 -1.421875 31.78125 -1.421875  Q 19.734375 -1.421875 13.25 4.234375  Q 6.78125 9.90625 6.78125 20.515625  Q 6.78125 27.484375 10.78125 32.3125  Q 14.796875 37.15625 21.921875 38.8125  M 18.3125 54.390625  Q 18.3125 48.734375 21.84375 45.5625  Q 25.390625 42.390625 31.78125 42.390625  Q 38.140625 42.390625 41.71875 45.5625  Q 45.3125 48.734375 45.3125 54.390625  Q 45.3125 60.0625 41.71875 63.234375  Q 38.140625 66.40625 31.78125 66.40625  Q 25.390625 66.40625 21.84375 63.234375  Q 18.3125 60.0625 18.3125 54.390625  " id="BitstreamVeraSans-Roman-38"/>
      </defs>
      <g transform="translate(236.055 202.87875)scale(0.08 -0.08)">
       <use xlink:href="#BitstreamVeraSans-Roman-38"/>
      </g>
     </g>
    </g>
    <g id="text_5">
     <!-- voltage (V, $\mu$V) -->
     <defs>
      <path id="BitstreamVeraSans-Roman-20"/>
      <path d="M 8.015625 75.875  L 15.828125 75.875  Q 23.140625 64.359375 26.78125 53.3125  Q 30.421875 42.28125 30.421875 31.390625  Q 30.421875 20.453125 26.78125 9.375  Q 23.140625 -1.703125 15.828125 -13.1875  L 8.015625 -13.1875  Q 14.5 -2 17.703125 9.0625  Q 20.90625 20.125 20.90625 31.390625  Q 20.90625 42.671875 17.703125 53.65625  Q 14.5 64.65625 8.015625 75.875  " id="BitstreamVeraSans-Roman-29"/>
      <path d="M 31 75.875  Q 24.46875 64.65625 21.28125 53.65625  Q 18.109375 42.671875 18.109375 31.390625  Q 18.109375 20.125 21.3125 9.0625  Q 24.515625 -2 31 -13.1875  L 23.1875 -13.1875  Q 15.875 -1.703125 12.234375 9.375  Q 8.59375 20.453125 8.59375 31.390625  Q 8.59375 42.28125 12.203125 53.3125  Q 15.828125 64.359375 23.1875 75.875  z " id="BitstreamVeraSans-Roman-28"/>
      <path d="M 30.609375 48.390625  Q 23.390625 48.390625 19.1875 42.75  Q 14.984375 37.109375 14.984375 27.296875  Q 14.984375 17.484375 19.15625 11.84375  Q 23.34375 6.203125 30.609375 6.203125  Q 37.796875 6.203125 41.984375 11.859375  Q 46.1875 17.53125 46.1875 27.296875  Q 46.1875 37.015625 41.984375 42.703125  Q 37.796875 48.390625 30.609375 48.390625  M 30.609375 56  Q 42.328125 56 49.015625 48.375  Q 55.71875 40.765625 55.71875 27.296875  Q 55.71875 13.875 49.015625 6.21875  Q 42.328125 -1.421875 30.609375 -1.421875  Q 18.84375 -1.421875 12.171875 6.21875  Q 5.515625 13.875 5.515625 27.296875  Q 5.515625 40.765625 12.171875 48.375  Q 18.84375 56 30.609375 56  " id="BitstreamVeraSans-Roman-6f"/>
      <path d="M 9.421875 75.984375  L 18.40625 75.984375  L 18.40625 0  L 9.421875 0  z " id="BitstreamVeraSans-Roman-6c"/>
      <path d="M 56.203125 29.59375  L 56.203125 25.203125  L 14.890625 25.203125  Q 15.484375 15.921875 20.484375 11.0625  Q 25.484375 6.203125 34.421875 6.203125  Q 39.59375 6.203125 44.453125 7.46875  Q 49.3125 8.734375 54.109375 11.28125  L 54.109375 2.78125  Q 49.265625 0.734375 44.1875 -0.34375  Q 39.109375 -1.421875 33.890625 -1.421875  Q 20.796875 -1.421875 13.15625 6.1875  Q 5.515625 13.8125 5.515625 26.8125  Q 5.515625 40.234375 12.765625 48.109375  Q 20.015625 56 32.328125 56  Q 43.359375 56 49.78125 48.890625  Q 56.203125 41.796875 56.203125 29.59375  M 47.21875 32.234375  Q 47.125 39.59375 43.09375 43.984375  Q 39.0625 48.390625 32.421875 48.390625  Q 24.90625 48.390625 20.390625 44.140625  Q 15.875 39.890625 15.1875 32.171875  z " id="BitstreamVeraSans-Roman-65"/>
      <path d="M 11.71875 12.40625  L 22.015625 12.40625  L 22.015625 4  L 14.015625 -11.625  L 7.71875 -11.625  L 11.71875 4  z " id="BitstreamVeraSans-Roman-2c"/>
      <path d="M 2.78125 -18.796875  Q 2.78125 -18.21875 2.875 -18.015625  L 17.578125 41.015625  Q 18.015625 42.4375 19.15625 43.3125  Q 20.3125 44.1875 21.78125 44.1875  Q 23.046875 44.1875 23.921875 43.421875  Q 24.8125 42.671875 24.8125 41.40625  Q 24.8125 41.109375 24.78125 40.9375  Q 24.75 40.765625 24.703125 40.578125  L 18.796875 17.1875  Q 17.828125 13.03125 17.828125 10.015625  Q 17.828125 6.296875 19.578125 3.90625  Q 21.34375 1.515625 24.90625 1.515625  Q 32.171875 1.515625 37.703125 10.59375  Q 37.75 10.6875 37.765625 10.734375  Q 37.796875 10.796875 37.796875 10.890625  L 45.015625 39.890625  Q 45.359375 41.21875 46.578125 42.15625  Q 47.796875 43.109375 49.21875 43.109375  Q 50.390625 43.109375 51.296875 42.328125  Q 52.203125 41.546875 52.203125 40.28125  Q 52.203125 39.703125 52.09375 39.5  L 44.921875 10.6875  Q 44.1875 7.859375 44.1875 5.8125  Q 44.1875 1.515625 47.125 1.515625  Q 50.25 1.515625 51.828125 5.375  Q 53.421875 9.234375 54.59375 14.703125  Q 54.78125 15.28125 55.421875 15.28125  L 56.59375 15.28125  Q 56.984375 15.28125 57.25 14.96875  Q 57.515625 14.65625 57.515625 14.3125  Q 55.765625 7.328125 53.6875 3.09375  Q 51.609375 -1.125 46.921875 -1.125  Q 43.609375 -1.125 41.046875 0.78125  Q 38.484375 2.6875 37.703125 5.90625  Q 35.203125 2.78125 31.859375 0.828125  Q 28.515625 -1.125 24.8125 -1.125  Q 18.5625 -1.125 14.984375 1.8125  L 9.90625 -18.40625  Q 9.625 -19.828125 8.453125 -20.703125  Q 7.28125 -21.578125 5.8125 -21.578125  Q 4.59375 -21.578125 3.6875 -20.8125  Q 2.78125 -20.0625 2.78125 -18.796875  " id="Cmmi10-b9"/>
      <path d="M 28.609375 0  L 0.78125 72.90625  L 11.078125 72.90625  L 34.1875 11.53125  L 57.328125 72.90625  L 67.578125 72.90625  L 39.796875 0  z " id="BitstreamVeraSans-Roman-56"/>
      <path d="M 2.984375 54.6875  L 12.5 54.6875  L 29.59375 8.796875  L 46.6875 54.6875  L 56.203125 54.6875  L 35.6875 0  L 23.484375 0  z " id="BitstreamVeraSans-Roman-76"/>
      <path d="M 18.3125 70.21875  L 18.3125 54.6875  L 36.8125 54.6875  L 36.8125 47.703125  L 18.3125 47.703125  L 18.3125 18.015625  Q 18.3125 11.328125 20.140625 9.421875  Q 21.96875 7.515625 27.59375 7.515625  L 36.8125 7.515625  L 36.8125 0  L 27.59375 0  Q 17.1875 0 13.234375 3.875  Q 9.28125 7.765625 9.28125 18.015625  L 9.28125 47.703125  L 2.6875 47.703125  L 2.6875 54.6875  L 9.28125 54.6875  L 9.28125 70.21875  z " id="BitstreamVeraSans-Roman-74"/>
      <path d="M 34.28125 27.484375  Q 23.390625 27.484375 19.1875 25  Q 14.984375 22.515625 14.984375 16.5  Q 14.984375 11.71875 18.140625 8.90625  Q 21.296875 6.109375 26.703125 6.109375  Q 34.1875 6.109375 38.703125 11.40625  Q 43.21875 16.703125 43.21875 25.484375  L 43.21875 27.484375  z M 52.203125 31.203125  L 52.203125 0  L 43.21875 0  L 43.21875 8.296875  Q 40.140625 3.328125 35.546875 0.953125  Q 30.953125 -1.421875 24.3125 -1.421875  Q 15.921875 -1.421875 10.953125 3.296875  Q 6 8.015625 6 15.921875  Q 6 25.140625 12.171875 29.828125  Q 18.359375 34.515625 30.609375 34.515625  L 43.21875 34.515625  L 43.21875 35.40625  Q 43.21875 41.609375 39.140625 45  Q 35.0625 48.390625 27.6875 48.390625  Q 23 48.390625 18.546875 47.265625  Q 14.109375 46.140625 10.015625 43.890625  L 10.015625 52.203125  Q 14.9375 54.109375 19.578125 55.046875  Q 24.21875 56 28.609375 56  Q 40.484375 56 46.34375 49.84375  Q 52.203125 43.703125 52.203125 31.203125  " id="BitstreamVeraSans-Roman-61"/>
      <path d="M 45.40625 27.984375  Q 45.40625 37.75 41.375 43.109375  Q 37.359375 48.484375 30.078125 48.484375  Q 22.859375 48.484375 18.828125 43.109375  Q 14.796875 37.75 14.796875 27.984375  Q 14.796875 18.265625 18.828125 12.890625  Q 22.859375 7.515625 30.078125 7.515625  Q 37.359375 7.515625 41.375 12.890625  Q 45.40625 18.265625 45.40625 27.984375  M 54.390625 6.78125  Q 54.390625 -7.171875 48.1875 -13.984375  Q 42 -20.796875 29.203125 -20.796875  Q 24.46875 -20.796875 20.265625 -20.09375  Q 16.0625 -19.390625 12.109375 -17.921875  L 12.109375 -9.1875  Q 16.0625 -11.328125 19.921875 -12.34375  Q 23.78125 -13.375 27.78125 -13.375  Q 36.625 -13.375 41.015625 -8.765625  Q 45.40625 -4.15625 45.40625 5.171875  L 45.40625 9.625  Q 42.625 4.78125 38.28125 2.390625  Q 33.9375 0 27.875 0  Q 17.828125 0 11.671875 7.65625  Q 5.515625 15.328125 5.515625 27.984375  Q 5.515625 40.671875 11.671875 48.328125  Q 17.828125 56 27.875 56  Q 33.9375 56 38.28125 53.609375  Q 42.625 51.21875 45.40625 46.390625  L 45.40625 54.6875  L 54.390625 54.6875  z " id="BitstreamVeraSans-Roman-67"/>
     </defs>
     <g transform="translate(134.0 215.6225)scale(0.08 -0.08)">
      <use transform="translate(0.0 0.015625)" xlink:href="#BitstreamVeraSans-Roman-76"/>
      <use transform="translate(59.1796875 0.015625)" xlink:href="#BitstreamVeraSans-Roman-6f"/>
      <use transform="translate(120.361328125 0.015625)" xlink:href="#BitstreamVeraSans-Roman-6c"/>
      <use transform="translate(148.14453125 0.015625)" xlink:href="#BitstreamVeraSans-Roman-74"/>
      <use transform="translate(187.353515625 0.015625)" xlink:href="#BitstreamVeraSans-Roman-61"/>
      <use transform="translate(248.6328125 0.015625)" xlink:href="#BitstreamVeraSans-Roman-67"/>
      <use transform="translate(312.109375 0.015625)" xlink:href="#BitstreamVeraSans-Roman-65"/>
      <use transform="translate(373.6328125 0.015625)" xlink:href="#BitstreamVeraSans-Roman-20"/>
      <use transform="translate(405.419921875 0.015625)" xlink:href="#BitstreamVeraSans-Roman-28"/>
      <use transform="translate(444.43359375 0.015625)" xlink:href="#BitstreamVeraSans-Roman-56"/>
      <use transform="translate(512.841796875 0.015625)" xlink:href="#BitstreamVeraSans-Roman-2c"/>
      <use transform="translate(544.62890625 0.015625)" xlink:href="#BitstreamVeraSans-Roman-20"/>
      <use transform="translate(576.416015625 0.015625)" xlink:href="#Cmmi10-b9"/>
      <use transform="translate(636.62109375 0.015625)" xlink:href="#BitstreamVeraSans-Roman-56"/>
      <use transform="translate(705.029296875 0.015625)" xlink:href="#BitstreamVeraSans-Roman-29"/>
     </g>
    </g>
   </g>
   <g id="matplotlib.axis_2">
    <g id="ytick_1">
     <g id="line2d_7">
      <defs>
       <path d="M 0 0  L 2 0  " id="m0d64590c11" style="stroke:#000000;stroke-width:0.5;"/>
      </defs>
      <g>
       <use style="stroke:#000000;stroke-width:0.5;" x="34.8" xlink:href="#m0d64590c11" y="138.282605658"/>
      </g>
     </g>
     <g id="text_6">
      <!-- 1.0 -->
      <defs>
       <path d="M 31.78125 66.40625  Q 24.171875 66.40625 20.328125 58.90625  Q 16.5 51.421875 16.5 36.375  Q 16.5 21.390625 20.328125 13.890625  Q 24.171875 6.390625 31.78125 6.390625  Q 39.453125 6.390625 43.28125 13.890625  Q 47.125 21.390625 47.125 36.375  Q 47.125 51.421875 43.28125 58.90625  Q 39.453125 66.40625 31.78125 66.40625  M 31.78125 74.21875  Q 44.046875 74.21875 50.515625 64.515625  Q 56.984375 54.828125 56.984375 36.375  Q 56.984375 17.96875 50.515625 8.265625  Q 44.046875 -1.421875 31.78125 -1.421875  Q 19.53125 -1.421875 13.0625 8.265625  Q 6.59375 17.96875 6.59375 36.375  Q 6.59375 54.828125 13.0625 64.515625  Q 19.53125 74.21875 31.78125 74.21875  " id="BitstreamVeraSans-Roman-30"/>
       <path d="M 12.40625 8.296875  L 28.515625 8.296875  L 28.515625 63.921875  L 10.984375 60.40625  L 10.984375 69.390625  L 28.421875 72.90625  L 38.28125 72.90625  L 38.28125 8.296875  L 54.390625 8.296875  L 54.390625 0  L 12.40625 0  z " id="BitstreamVeraSans-Roman-31"/>
       <path d="M 10.6875 12.40625  L 21 12.40625  L 21 0  L 10.6875 0  z " id="BitstreamVeraSans-Roman-2e"/>
      </defs>
      <g transform="translate(18.0775 140.490105658)scale(0.08 -0.08)">
       <use xlink:href="#BitstreamVeraSans-Roman-31"/>
       <use x="63.623046875" xlink:href="#BitstreamVeraSans-Roman-2e"/>
       <use x="95.41015625" xlink:href="#BitstreamVeraSans-Roman-30"/>
      </g>
     </g>
    </g>
    <g id="ytick_2">
     <g id="line2d_8">
      <g>
       <use style="stroke:#000000;stroke-width:0.5;" x="34.8" xlink:href="#m0d64590c11" y="97.2504953182"/>
      </g>
     </g>
     <g id="text_7">
      <!-- 1.5 -->
      <defs>
       <path d="M 10.796875 72.90625  L 49.515625 72.90625  L 49.515625 64.59375  L 19.828125 64.59375  L 19.828125 46.734375  Q 21.96875 47.46875 24.109375 47.828125  Q 26.265625 48.1875 28.421875 48.1875  Q 40.625 48.1875 47.75 41.5  Q 54.890625 34.8125 54.890625 23.390625  Q 54.890625 11.625 47.5625 5.09375  Q 40.234375 -1.421875 26.90625 -1.421875  Q 22.3125 -1.421875 17.546875 -0.640625  Q 12.796875 0.140625 7.71875 1.703125  L 7.71875 11.625  Q 12.109375 9.234375 16.796875 8.0625  Q 21.484375 6.890625 26.703125 6.890625  Q 35.15625 6.890625 40.078125 11.328125  Q 45.015625 15.765625 45.015625 23.390625  Q 45.015625 31 40.078125 35.4375  Q 35.15625 39.890625 26.703125 39.890625  Q 22.75 39.890625 18.8125 39.015625  Q 14.890625 38.140625 10.796875 36.28125  z " id="BitstreamVeraSans-Roman-35"/>
      </defs>
      <g transform="translate(18.0775 99.4579953182)scale(0.08 -0.08)">
       <use xlink:href="#BitstreamVeraSans-Roman-31"/>
       <use x="63.623046875" xlink:href="#BitstreamVeraSans-Roman-2e"/>
       <use x="95.41015625" xlink:href="#BitstreamVeraSans-Roman-35"/>
      </g>
     </g>
    </g>
    <g id="ytick_3">
     <g id="line2d_9">
      <g>
       <use style="stroke:#000000;stroke-width:0.5;" x="34.8" xlink:href="#m0d64590c11" y="56.2183849784"/>
      </g>
     </g>
     <g id="text_8">
      <!-- 2.0 -->
      <g transform="translate(18.0775 58.4258849784)scale(0.08 -0.08)">
       <use xlink:href="#BitstreamVeraSans-Roman-32"/>
       <use x="63.623046875" xlink:href="#BitstreamVeraSans-Roman-2e"/>
       <use x="95.41015625" xlink:href="#BitstreamVeraSans-Roman-30"/>
      </g>
     </g>
    </g>
    <g id="text_9">
     <!-- luminescence (L) -->
     <defs>
      <path d="M 9.8125 72.90625  L 19.671875 72.90625  L 19.671875 8.296875  L 55.171875 8.296875  L 55.171875 0  L 9.8125 0  z " id="BitstreamVeraSans-Roman-4c"/>
      <path d="M 54.890625 33.015625  L 54.890625 0  L 45.90625 0  L 45.90625 32.71875  Q 45.90625 40.484375 42.875 44.328125  Q 39.84375 48.1875 33.796875 48.1875  Q 26.515625 48.1875 22.3125 43.546875  Q 18.109375 38.921875 18.109375 30.90625  L 18.109375 0  L 9.078125 0  L 9.078125 54.6875  L 18.109375 54.6875  L 18.109375 46.1875  Q 21.34375 51.125 25.703125 53.5625  Q 30.078125 56 35.796875 56  Q 45.21875 56 50.046875 50.171875  Q 54.890625 44.34375 54.890625 33.015625  " id="BitstreamVeraSans-Roman-6e"/>
      <path d="M 52 44.1875  Q 55.375 50.25 60.0625 53.125  Q 64.75 56 71.09375 56  Q 79.640625 56 84.28125 50.015625  Q 88.921875 44.046875 88.921875 33.015625  L 88.921875 0  L 79.890625 0  L 79.890625 32.71875  Q 79.890625 40.578125 77.09375 44.375  Q 74.3125 48.1875 68.609375 48.1875  Q 61.625 48.1875 57.5625 43.546875  Q 53.515625 38.921875 53.515625 30.90625  L 53.515625 0  L 44.484375 0  L 44.484375 32.71875  Q 44.484375 40.625 41.703125 44.40625  Q 38.921875 48.1875 33.109375 48.1875  Q 26.21875 48.1875 22.15625 43.53125  Q 18.109375 38.875 18.109375 30.90625  L 18.109375 0  L 9.078125 0  L 9.078125 54.6875  L 18.109375 54.6875  L 18.109375 46.1875  Q 21.1875 51.21875 25.484375 53.609375  Q 29.78125 56 35.6875 56  Q 41.65625 56 45.828125 52.96875  Q 50 49.953125 52 44.1875  " id="BitstreamVeraSans-Roman-6d"/>
      <path d="M 9.421875 54.6875  L 18.40625 54.6875  L 18.40625 0  L 9.421875 0  z M 9.421875 75.984375  L 18.40625 75.984375  L 18.40625 64.59375  L 9.421875 64.59375  z " id="BitstreamVeraSans-Roman-69"/>
      <path d="M 8.5 21.578125  L 8.5 54.6875  L 17.484375 54.6875  L 17.484375 21.921875  Q 17.484375 14.15625 20.5 10.265625  Q 23.53125 6.390625 29.59375 6.390625  Q 36.859375 6.390625 41.078125 11.03125  Q 45.3125 15.671875 45.3125 23.6875  L 45.3125 54.6875  L 54.296875 54.6875  L 54.296875 0  L 45.3125 0  L 45.3125 8.40625  Q 42.046875 3.421875 37.71875 1  Q 33.40625 -1.421875 27.6875 -1.421875  Q 18.265625 -1.421875 13.375 4.4375  Q 8.5 10.296875 8.5 21.578125  " id="BitstreamVeraSans-Roman-75"/>
      <path d="M 44.28125 53.078125  L 44.28125 44.578125  Q 40.484375 46.53125 36.375 47.5  Q 32.28125 48.484375 27.875 48.484375  Q 21.1875 48.484375 17.84375 46.4375  Q 14.5 44.390625 14.5 40.28125  Q 14.5 37.15625 16.890625 35.375  Q 19.28125 33.59375 26.515625 31.984375  L 29.59375 31.296875  Q 39.15625 29.25 43.1875 25.515625  Q 47.21875 21.78125 47.21875 15.09375  Q 47.21875 7.46875 41.1875 3.015625  Q 35.15625 -1.421875 24.609375 -1.421875  Q 20.21875 -1.421875 15.453125 -0.5625  Q 10.6875 0.296875 5.421875 2  L 5.421875 11.28125  Q 10.40625 8.6875 15.234375 7.390625  Q 20.0625 6.109375 24.8125 6.109375  Q 31.15625 6.109375 34.5625 8.28125  Q 37.984375 10.453125 37.984375 14.40625  Q 37.984375 18.0625 35.515625 20.015625  Q 33.0625 21.96875 24.703125 23.78125  L 21.578125 24.515625  Q 13.234375 26.265625 9.515625 29.90625  Q 5.8125 33.546875 5.8125 39.890625  Q 5.8125 47.609375 11.28125 51.796875  Q 16.75 56 26.8125 56  Q 31.78125 56 36.171875 55.265625  Q 40.578125 54.546875 44.28125 53.078125  " id="BitstreamVeraSans-Roman-73"/>
      <path d="M 48.78125 52.59375  L 48.78125 44.1875  Q 44.96875 46.296875 41.140625 47.34375  Q 37.3125 48.390625 33.40625 48.390625  Q 24.65625 48.390625 19.8125 42.84375  Q 14.984375 37.3125 14.984375 27.296875  Q 14.984375 17.28125 19.8125 11.734375  Q 24.65625 6.203125 33.40625 6.203125  Q 37.3125 6.203125 41.140625 7.25  Q 44.96875 8.296875 48.78125 10.40625  L 48.78125 2.09375  Q 45.015625 0.34375 40.984375 -0.53125  Q 36.96875 -1.421875 32.421875 -1.421875  Q 20.0625 -1.421875 12.78125 6.34375  Q 5.515625 14.109375 5.515625 27.296875  Q 5.515625 40.671875 12.859375 48.328125  Q 20.21875 56 33.015625 56  Q 37.15625 56 41.109375 55.140625  Q 45.0625 54.296875 48.78125 52.59375  " id="BitstreamVeraSans-Roman-63"/>
     </defs>
     <g transform="translate(11.41375 136.81125)rotate(-90.0)scale(0.08 -0.08)">
      <use xlink:href="#BitstreamVeraSans-Roman-6c"/>
      <use x="27.783203125" xlink:href="#BitstreamVeraSans-Roman-75"/>
      <use x="91.162109375" xlink:href="#BitstreamVeraSans-Roman-6d"/>
      <use x="188.57421875" xlink:href="#BitstreamVeraSans-Roman-69"/>
      <use x="216.357421875" xlink:href="#BitstreamVeraSans-Roman-6e"/>
      <use x="279.736328125" xlink:href="#BitstreamVeraSans-Roman-65"/>
      <use x="341.259765625" xlink:href="#BitstreamVeraSans-Roman-73"/>
      <use x="393.359375" xlink:href="#BitstreamVeraSans-Roman-63"/>
      <use x="448.33984375" xlink:href="#BitstreamVeraSans-Roman-65"/>
      <use x="509.86328125" xlink:href="#BitstreamVeraSans-Roman-6e"/>
      <use x="573.2421875" xlink:href="#BitstreamVeraSans-Roman-63"/>
      <use x="628.22265625" xlink:href="#BitstreamVeraSans-Roman-65"/>
      <use x="689.74609375" xlink:href="#BitstreamVeraSans-Roman-20"/>
      <use x="721.533203125" xlink:href="#BitstreamVeraSans-Roman-28"/>
      <use x="760.546875" xlink:href="#BitstreamVeraSans-Roman-4c"/>
      <use x="816.259765625" xlink:href="#BitstreamVeraSans-Roman-29"/>
     </g>
    </g>
   </g>
   <g id="text_10">
    <!-- L = $\frac{1}{1+\exp(-V+5)}+10$ -->
    <defs>
     <path d="M 9.28125 0  L 9.28125 3.515625  Q 21.78125 3.515625 21.78125 6.6875  L 21.78125 59.1875  Q 16.609375 56.6875 8.6875 56.6875  L 8.6875 60.203125  Q 20.953125 60.203125 27.203125 66.609375  L 28.609375 66.609375  Q 28.953125 66.609375 29.265625 66.328125  Q 29.59375 66.0625 29.59375 65.71875  L 29.59375 6.6875  Q 29.59375 3.515625 42.09375 3.515625  L 42.09375 0  z " id="Cmr10-31"/>
     <path d="M 10.203125 23  Q 9.375 23 8.828125 23.625  Q 8.296875 24.265625 8.296875 25  Q 8.296875 25.734375 8.828125 26.359375  Q 9.375 27 10.203125 27  L 67.578125 27  Q 68.359375 27 68.875 26.359375  Q 69.390625 25.734375 69.390625 25  Q 69.390625 24.265625 68.875 23.625  Q 68.359375 23 67.578125 23  z " id="Cmsy10-a1"/>
     <path d="M 8.6875 11.375  Q 9.71875 8.453125 11.84375 6.046875  Q 13.96875 3.65625 16.875 2.3125  Q 19.78125 0.984375 22.90625 0.984375  Q 30.125 0.984375 32.859375 6.59375  Q 35.59375 12.203125 35.59375 20.21875  Q 35.59375 23.6875 35.46875 26.046875  Q 35.359375 28.421875 34.8125 30.609375  Q 33.890625 34.125 31.5625 36.765625  Q 29.25 39.40625 25.875 39.40625  Q 22.515625 39.40625 20.09375 38.375  Q 17.671875 37.359375 16.15625 35.984375  Q 14.65625 34.625 13.484375 33.109375  Q 12.3125 31.59375 12.015625 31.5  L 10.890625 31.5  Q 10.640625 31.5 10.265625 31.8125  Q 9.90625 32.125 9.90625 32.421875  L 9.90625 65.828125  Q 9.90625 66.0625 10.21875 66.328125  Q 10.546875 66.609375 10.890625 66.609375  L 11.1875 66.609375  Q 17.921875 63.375 25.484375 63.375  Q 32.90625 63.375 39.796875 66.609375  L 40.09375 66.609375  Q 40.4375 66.609375 40.71875 66.359375  Q 41.015625 66.109375 41.015625 65.828125  L 41.015625 64.890625  Q 41.015625 64.40625 40.828125 64.40625  Q 37.40625 59.859375 32.25 57.3125  Q 27.09375 54.78125 21.578125 54.78125  Q 17.578125 54.78125 13.375 55.90625  L 13.375 37.015625  Q 16.703125 39.703125 19.3125 40.84375  Q 21.921875 42 25.984375 42  Q 31.5 42 35.859375 38.8125  Q 40.234375 35.640625 42.578125 30.53125  Q 44.921875 25.4375 44.921875 20.125  Q 44.921875 14.109375 41.96875 8.984375  Q 39.015625 3.859375 33.9375 0.828125  Q 28.859375 -2.203125 22.90625 -2.203125  Q 17.96875 -2.203125 13.84375 0.328125  Q 9.71875 2.875 7.34375 7.171875  Q 4.984375 11.46875 4.984375 16.3125  Q 4.984375 18.5625 6.4375 19.96875  Q 7.90625 21.390625 10.109375 21.390625  Q 12.3125 21.390625 13.796875 19.9375  Q 15.28125 18.5 15.28125 16.3125  Q 15.28125 14.15625 13.796875 12.671875  Q 12.3125 11.1875 10.109375 11.1875  Q 9.765625 11.1875 9.328125 11.25  Q 8.890625 11.328125 8.6875 11.375  " id="Cmr10-35"/>
     <path d="M 31 -24.8125  Q 25.4375 -20.40625 21.40625 -14.71875  Q 17.390625 -9.03125 14.8125 -2.578125  Q 12.25 3.859375 10.984375 10.890625  Q 9.71875 17.921875 9.71875 25  Q 9.71875 32.171875 10.984375 39.203125  Q 12.25 46.234375 14.859375 52.734375  Q 17.484375 59.234375 21.53125 64.890625  Q 25.59375 70.5625 31 74.8125  Q 31 75 31.5 75  L 32.421875 75  Q 32.71875 75 32.953125 74.734375  Q 33.203125 74.46875 33.203125 74.125  Q 33.203125 73.6875 33.015625 73.484375  Q 28.125 68.703125 24.875 63.234375  Q 21.625 57.765625 19.640625 51.578125  Q 17.671875 45.40625 16.796875 38.78125  Q 15.921875 32.171875 15.921875 25  Q 15.921875 -6.78125 32.90625 -23.296875  Q 33.203125 -23.578125 33.203125 -24.125  Q 33.203125 -24.359375 32.9375 -24.671875  Q 32.671875 -25 32.421875 -25  L 31.5 -25  Q 31 -25 31 -24.8125  " id="Cmr10-28"/>
     <path d="M 6.5 -25  Q 5.609375 -25 5.609375 -24.125  Q 5.609375 -23.6875 5.8125 -23.484375  Q 22.90625 -6.78125 22.90625 25  Q 22.90625 56.78125 6 73.296875  Q 5.609375 73.53125 5.609375 74.125  Q 5.609375 74.46875 5.875 74.734375  Q 6.15625 75 6.5 75  L 7.421875 75  Q 7.71875 75 7.90625 74.8125  Q 15.09375 69.140625 19.875 61.03125  Q 24.65625 52.9375 26.875 43.75  Q 29.109375 34.578125 29.109375 25  Q 29.109375 17.921875 27.90625 11.0625  Q 26.703125 4.203125 24.09375 -2.453125  Q 21.484375 -9.125 17.484375 -14.765625  Q 13.484375 -20.40625 7.90625 -24.8125  Q 7.71875 -25 7.421875 -25  z " id="Cmr10-29"/>
     <path d="M 22.015625 -1.125  L 14.015625 62.59375  Q 13.28125 64.796875 6.5 64.796875  Q 5.515625 64.796875 5.515625 66.109375  Q 5.71875 67.1875 6 67.75  Q 6.296875 68.3125 7.171875 68.3125  L 31.59375 68.3125  Q 32.125 68.3125 32.375 67.921875  Q 32.625 67.53125 32.625 67  Q 32.234375 64.796875 31.296875 64.796875  Q 23.484375 64.796875 23 62.109375  L 29.59375 9.8125  L 60.40625 58.984375  Q 61.28125 60.640625 61.28125 61.625  Q 61.28125 63.375 59.6875 64.078125  Q 58.109375 64.796875 56 64.796875  Q 54.984375 64.796875 54.984375 66.109375  Q 55.171875 66.890625 55.3125 67.328125  Q 55.46875 67.78125 55.765625 68.046875  Q 56.0625 68.3125 56.6875 68.3125  L 75.984375 68.3125  Q 76.90625 68.3125 76.90625 67  Q 76.515625 64.796875 75.59375 64.796875  Q 68.0625 64.796875 63.8125 58.203125  Q 63.625 58.015625 63.484375 58.015625  L 26.609375 -1.125  Q 25.875 -2.203125 24.703125 -2.203125  L 23.296875 -2.203125  Q 22.171875 -2.203125 22.015625 -1.125  " id="Cmmi10-56"/>
     <path d="M 7.515625 23  Q 6.6875 23 6.140625 23.625  Q 5.609375 24.265625 5.609375 25  Q 5.609375 25.734375 6.140625 26.359375  Q 6.6875 27 7.515625 27  L 36.921875 27  L 36.921875 56.5  Q 36.921875 57.28125 37.5 57.78125  Q 38.09375 58.296875 38.921875 58.296875  Q 39.65625 58.296875 40.28125 57.78125  Q 40.921875 57.28125 40.921875 56.5  L 40.921875 27  L 70.3125 27  Q 71.046875 27 71.578125 26.359375  Q 72.125 25.734375 72.125 25  Q 72.125 24.265625 71.578125 23.625  Q 71.046875 23 70.3125 23  L 40.921875 23  L 40.921875 -6.5  Q 40.921875 -7.28125 40.28125 -7.78125  Q 39.65625 -8.296875 38.921875 -8.296875  Q 38.09375 -8.296875 37.5 -7.78125  Q 36.921875 -7.28125 36.921875 -6.5  L 36.921875 23  z " id="Cmr10-2b"/>
     <path d="M 25 -2.203125  Q 12.75 -2.203125 8.328125 7.875  Q 3.90625 17.96875 3.90625 31.890625  Q 3.90625 40.578125 5.484375 48.234375  Q 7.078125 55.90625 11.78125 61.25  Q 16.5 66.609375 25 66.609375  Q 31.59375 66.609375 35.78125 63.375  Q 39.984375 60.15625 42.1875 55.046875  Q 44.390625 49.953125 45.1875 44.109375  Q 46 38.28125 46 31.890625  Q 46 23.296875 44.40625 15.796875  Q 42.828125 8.296875 38.1875 3.046875  Q 33.546875 -2.203125 25 -2.203125  M 25 0.390625  Q 30.5625 0.390625 33.296875 6.09375  Q 36.03125 11.8125 36.671875 18.75  Q 37.3125 25.6875 37.3125 33.5  Q 37.3125 41.015625 36.671875 47.359375  Q 36.03125 53.71875 33.3125 58.859375  Q 30.609375 64.015625 25 64.015625  Q 19.34375 64.015625 16.609375 58.828125  Q 13.875 53.65625 13.234375 47.328125  Q 12.59375 41.015625 12.59375 33.5  Q 12.59375 27.9375 12.859375 23  Q 13.140625 18.0625 14.3125 12.8125  Q 15.484375 7.5625 18.09375 3.96875  Q 20.703125 0.390625 25 0.390625  " id="Cmr10-30"/>
     <path d="M 10.59375 45.40625  L 73.1875 45.40625  L 73.1875 37.203125  L 10.59375 37.203125  z M 10.59375 25.484375  L 73.1875 25.484375  L 73.1875 17.1875  L 10.59375 17.1875  z " id="BitstreamVeraSans-Roman-3d"/>
     <path d="M 1.21875 0  L 1.21875 3.515625  Q 5.03125 3.515625 8.390625 5  Q 11.765625 6.5 14.109375 9.421875  L 23.1875 21  L 11.375 36.375  Q 9.625 38.578125 7.546875 39.078125  Q 5.46875 39.59375 1.703125 39.59375  L 1.703125 43.109375  L 22.515625 43.109375  L 22.515625 39.59375  Q 21.1875 39.59375 20.03125 39  Q 18.890625 38.421875 18.890625 37.3125  Q 18.890625 36.921875 19.1875 36.375  L 27.203125 25.984375  L 33.203125 33.6875  Q 34.421875 35.15625 34.421875 36.625  Q 34.421875 37.84375 33.609375 38.71875  Q 32.8125 39.59375 31.5 39.59375  L 31.5 43.109375  L 49.90625 43.109375  L 49.90625 39.59375  Q 46.046875 39.59375 42.65625 38.109375  Q 39.265625 36.625 36.921875 33.6875  L 29 23.578125  L 41.796875 6.6875  Q 43.703125 4.5 45.75 4  Q 47.796875 3.515625 51.609375 3.515625  L 51.609375 0  L 30.8125 0  L 30.8125 3.515625  Q 32.03125 3.515625 33.15625 4.09375  Q 34.28125 4.6875 34.28125 5.8125  Q 34.28125 6.25 33.984375 6.6875  L 25 18.609375  L 17.828125 9.421875  Q 16.703125 8.15625 16.703125 6.5  Q 16.703125 5.28125 17.53125 4.390625  Q 18.359375 3.515625 19.484375 3.515625  L 19.484375 0  z " id="Cmr10-78"/>
     <path d="M 24.90625 -1.125  Q 18.796875 -1.125 13.6875 2.078125  Q 8.59375 5.28125 5.6875 10.625  Q 2.78125 15.96875 2.78125 21.921875  Q 2.78125 27.78125 5.4375 33.046875  Q 8.109375 38.328125 12.859375 41.578125  Q 17.625 44.828125 23.484375 44.828125  Q 28.078125 44.828125 31.46875 43.28125  Q 34.859375 41.75 37.0625 39.015625  Q 39.265625 36.28125 40.375 32.5625  Q 41.5 28.859375 41.5 24.421875  Q 41.5 23.09375 40.484375 23.09375  L 11.53125 23.09375  L 11.53125 22.015625  Q 11.53125 13.71875 14.875 7.765625  Q 18.21875 1.8125 25.78125 1.8125  Q 28.859375 1.8125 31.46875 3.171875  Q 34.078125 4.546875 36 6.984375  Q 37.9375 9.421875 38.625 12.203125  Q 38.71875 12.546875 38.984375 12.8125  Q 39.265625 13.09375 39.59375 13.09375  L 40.484375 13.09375  Q 41.5 13.09375 41.5 11.8125  Q 40.09375 6.15625 35.40625 2.515625  Q 30.71875 -1.125 24.90625 -1.125  M 11.625 25.59375  L 34.421875 25.59375  Q 34.421875 29.34375 33.375 33.203125  Q 32.328125 37.0625 29.875 39.625  Q 27.4375 42.1875 23.484375 42.1875  Q 17.828125 42.1875 14.71875 36.890625  Q 11.625 31.59375 11.625 25.59375  " id="Cmr10-65"/>
     <path d="M 2.59375 -19.390625  L 2.59375 -15.921875  Q 6 -15.921875 8.203125 -15.328125  Q 10.40625 -14.75 10.40625 -12.703125  L 10.40625 35.5  Q 10.40625 38.234375 8.453125 38.90625  Q 6.5 39.59375 2.59375 39.59375  L 2.59375 43.109375  L 17.390625 44.1875  L 17.390625 37.984375  Q 20.125 41.015625 23.75 42.59375  Q 27.390625 44.1875 31.5 44.1875  Q 37.40625 44.1875 42.140625 40.984375  Q 46.875 37.796875 49.53125 32.59375  Q 52.203125 27.390625 52.203125 21.578125  Q 52.203125 15.53125 49.25 10.296875  Q 46.296875 5.078125 41.1875 1.96875  Q 36.078125 -1.125 29.984375 -1.125  Q 22.703125 -1.125 17.671875 4.78125  L 17.671875 -12.703125  Q 17.671875 -14.75 19.890625 -15.328125  Q 22.125 -15.921875 25.484375 -15.921875  L 25.484375 -19.390625  z M 17.671875 9.71875  Q 19.4375 6.15625 22.5625 3.828125  Q 25.6875 1.515625 29.390625 1.515625  Q 32.859375 1.515625 35.515625 3.359375  Q 38.1875 5.21875 39.984375 8.34375  Q 41.796875 11.46875 42.640625 14.90625  Q 43.5 18.359375 43.5 21.578125  Q 43.5 25.59375 42.0625 30.25  Q 40.625 34.90625 37.671875 38.109375  Q 34.71875 41.3125 30.515625 41.3125  Q 26.46875 41.3125 23.0625 39.234375  Q 19.671875 37.15625 17.671875 33.59375  z " id="Cmr10-70"/>
    </defs>
    <g transform="translate(172.6 146.782605658)scale(0.1 -0.1)">
     <use transform="translate(0.0 0.8734375)" xlink:href="#BitstreamVeraSans-Roman-4c"/>
     <use transform="translate(55.712890625 0.8734375)" xlink:href="#BitstreamVeraSans-Roman-20"/>
     <use transform="translate(87.5 0.8734375)" xlink:href="#BitstreamVeraSans-Roman-3d"/>
     <use transform="translate(171.2890625 0.8734375)" xlink:href="#BitstreamVeraSans-Roman-20"/>
     <use transform="translate(440.076171875 38.3734375)scale(0.7)" xlink:href="#Cmr10-31"/>
     <use transform="translate(203.076171875 -45.3765625)scale(0.7)" xlink:href="#Cmr10-31"/>
     <use transform="translate(250.3671875 -45.3765625)scale(0.7)" xlink:href="#Cmr10-2b"/>
     <use transform="translate(317.038085938 -45.3765625)scale(0.7)" xlink:href="#Cmr10-65"/>
     <use transform="translate(348.107421875 -45.3765625)scale(0.7)" xlink:href="#Cmr10-78"/>
     <use transform="translate(384.987304688 -45.3765625)scale(0.7)" xlink:href="#Cmr10-70"/>
     <use transform="translate(423.849609375 -45.3765625)scale(0.7)" xlink:href="#Cmr10-28"/>
     <use transform="translate(463.313476562 -45.3765625)scale(0.7)" xlink:href="#Cmsy10-a1"/>
     <use transform="translate(529.984375 -45.3765625)scale(0.7)" xlink:href="#Cmmi10-56"/>
     <use transform="translate(583.0859375 -45.3765625)scale(0.7)" xlink:href="#Cmr10-2b"/>
     <use transform="translate(649.756835938 -45.3765625)scale(0.7)" xlink:href="#Cmr10-35"/>
     <use transform="translate(684.756835938 -45.3765625)scale(0.7)" xlink:href="#Cmr10-29"/>
     <use transform="translate(741.98828125 0.8734375)" xlink:href="#Cmr10-2b"/>
     <use transform="translate(837.232421875 0.8734375)" xlink:href="#Cmr10-31"/>
     <use transform="translate(887.232421875 0.8734375)" xlink:href="#Cmr10-30"/>
     <path d="M 203.076172 13.373437  L 203.076172 19.623437  L 711.929688 19.623437  L 711.929688 13.373437  L 203.076172 13.373437  z "/>
    </g>
   </g>
  </g>
  <g id="axes_2">
   <g id="patch_5">
    <path clip-path="url(#p4a4edaa8f0)" d="M 75.705337 54  L 82.377786 54  L 82.377786 41.657143  L 75.705337 41.657143  z " style="fill:#cccccc;stroke:#ffffff;stroke-linejoin:miter;stroke-width:2.0;"/>
   </g>
   <g id="patch_6">
    <path clip-path="url(#p4a4edaa8f0)" d="M 82.377786 54  L 89.050236 54  L 89.050236 44.742857  L 82.377786 44.742857  z " style="fill:#cccccc;stroke:#ffffff;stroke-linejoin:miter;stroke-width:2.0;"/>
   </g>
   <g id="patch_7">
    <path clip-path="url(#p4a4edaa8f0)" d="M 89.050236 54  L 95.722685 54  L 95.722685 44.742857  L 89.050236 44.742857  z " style="fill:#cccccc;stroke:#ffffff;stroke-linejoin:miter;stroke-width:2.0;"/>
   </g>
   <g id="patch_8">
    <path clip-path="url(#p4a4edaa8f0)" d="M 95.722685 54  L 102.395135 54  L 102.395135 32.4  L 95.722685 32.4  z " style="fill:#cccccc;stroke:#ffffff;stroke-linejoin:miter;stroke-width:2.0;"/>
   </g>
   <g id="patch_9">
    <path clip-path="url(#p4a4edaa8f0)" d="M 102.395135 54  L 109.067584 54  L 109.067584 10.8  L 102.395135 10.8  z " style="fill:#cccccc;stroke:#ffffff;stroke-linejoin:miter;stroke-width:2.0;"/>
   </g>
   <g id="patch_10">
    <path clip-path="url(#p4a4edaa8f0)" d="M 109.067584 54  L 115.740034 54  L 115.740034 23.142857  L 109.067584 23.142857  z " style="fill:#cccccc;stroke:#ffffff;stroke-linejoin:miter;stroke-width:2.0;"/>
   </g>
   <g id="patch_11">
    <path clip-path="url(#p4a4edaa8f0)" d="M 115.740034 54  L 122.412483 54  L 122.412483 20.057143  L 115.740034 20.057143  z " style="fill:#cccccc;stroke:#ffffff;stroke-linejoin:miter;stroke-width:2.0;"/>
   </g>
   <g id="patch_12">
    <path clip-path="url(#p4a4edaa8f0)" d="M 122.412483 54  L 129.084932 54  L 129.084932 32.4  L 122.412483 32.4  z " style="fill:#cccccc;stroke:#ffffff;stroke-linejoin:miter;stroke-width:2.0;"/>
   </g>
   <g id="patch_13">
    <path clip-path="url(#p4a4edaa8f0)" d="M 129.084932 54  L 135.757382 54  L 135.757382 50.914286  L 129.084932 50.914286  z " style="fill:#cccccc;stroke:#ffffff;stroke-linejoin:miter;stroke-width:2.0;"/>
   </g>
   <g id="patch_14">
    <path clip-path="url(#p4a4edaa8f0)" d="M 135.757382 54  L 142.429831 54  L 142.429831 50.914286  L 135.757382 50.914286  z " style="fill:#cccccc;stroke:#ffffff;stroke-linejoin:miter;stroke-width:2.0;"/>
   </g>
   <g id="matplotlib.axis_3">
    <g id="xtick_5">
     <g id="text_11">
      <!-- -0.5 -->
      <defs>
       <path d="M 4.890625 31.390625  L 31.203125 31.390625  L 31.203125 23.390625  L 4.890625 23.390625  z " id="BitstreamVeraSans-Roman-2d"/>
      </defs>
      <g transform="translate(66.14671875 62.5590625)scale(0.06 -0.06)">
       <use xlink:href="#BitstreamVeraSans-Roman-2d"/>
       <use x="36.083984375" xlink:href="#BitstreamVeraSans-Roman-30"/>
       <use x="99.70703125" xlink:href="#BitstreamVeraSans-Roman-2e"/>
       <use x="131.494140625" xlink:href="#BitstreamVeraSans-Roman-35"/>
      </g>
     </g>
    </g>
    <g id="xtick_6">
     <g id="text_12">
      <!-- 0 -->
      <g transform="translate(106.09125 62.5590625)scale(0.06 -0.06)">
       <use xlink:href="#BitstreamVeraSans-Roman-30"/>
      </g>
     </g>
    </g>
    <g id="xtick_7">
     <g id="text_13">
      <!-- 0.5 -->
      <g transform="translate(139.2290625 62.5590625)scale(0.06 -0.06)">
       <use xlink:href="#BitstreamVeraSans-Roman-30"/>
       <use x="63.623046875" xlink:href="#BitstreamVeraSans-Roman-2e"/>
       <use x="95.41015625" xlink:href="#BitstreamVeraSans-Roman-35"/>
      </g>
     </g>
    </g>
    <g id="text_14">
     <!-- residuals -->
     <defs>
      <path d="M 45.40625 46.390625  L 45.40625 75.984375  L 54.390625 75.984375  L 54.390625 0  L 45.40625 0  L 45.40625 8.203125  Q 42.578125 3.328125 38.25 0.953125  Q 33.9375 -1.421875 27.875 -1.421875  Q 17.96875 -1.421875 11.734375 6.484375  Q 5.515625 14.40625 5.515625 27.296875  Q 5.515625 40.1875 11.734375 48.09375  Q 17.96875 56 27.875 56  Q 33.9375 56 38.25 53.625  Q 42.578125 51.265625 45.40625 46.390625  M 14.796875 27.296875  Q 14.796875 17.390625 18.875 11.75  Q 22.953125 6.109375 30.078125 6.109375  Q 37.203125 6.109375 41.296875 11.75  Q 45.40625 17.390625 45.40625 27.296875  Q 45.40625 37.203125 41.296875 42.84375  Q 37.203125 48.484375 30.078125 48.484375  Q 22.953125 48.484375 18.875 42.84375  Q 14.796875 37.203125 14.796875 27.296875  " id="BitstreamVeraSans-Roman-64"/>
      <path d="M 41.109375 46.296875  Q 39.59375 47.171875 37.8125 47.578125  Q 36.03125 48 33.890625 48  Q 26.265625 48 22.1875 43.046875  Q 18.109375 38.09375 18.109375 28.8125  L 18.109375 0  L 9.078125 0  L 9.078125 54.6875  L 18.109375 54.6875  L 18.109375 46.1875  Q 20.953125 51.171875 25.484375 53.578125  Q 30.03125 56 36.53125 56  Q 37.453125 56 38.578125 55.875  Q 39.703125 55.765625 41.0625 55.515625  z " id="BitstreamVeraSans-Roman-72"/>
     </defs>
     <g transform="translate(94.485 73.3659375)scale(0.06 -0.06)">
      <use xlink:href="#BitstreamVeraSans-Roman-72"/>
      <use x="41.08203125" xlink:href="#BitstreamVeraSans-Roman-65"/>
      <use x="102.60546875" xlink:href="#BitstreamVeraSans-Roman-73"/>
      <use x="154.705078125" xlink:href="#BitstreamVeraSans-Roman-69"/>
      <use x="182.48828125" xlink:href="#BitstreamVeraSans-Roman-64"/>
      <use x="245.96484375" xlink:href="#BitstreamVeraSans-Roman-75"/>
      <use x="309.34375" xlink:href="#BitstreamVeraSans-Roman-61"/>
      <use x="370.623046875" xlink:href="#BitstreamVeraSans-Roman-6c"/>
      <use x="398.40625" xlink:href="#BitstreamVeraSans-Roman-73"/>
     </g>
    </g>
   </g>
   <g id="matplotlib.axis_4">
    <g id="ytick_4">
     <g id="line2d_10">
      <path clip-path="url(#p4a4edaa8f0)" d="M 72 38.571429  L 144 38.571429  " style="fill:none;stroke:#ffffff;stroke-linecap:square;"/>
     </g>
     <g id="line2d_11">
      <g>
       <use style="stroke:#000000;stroke-width:0.5;" x="72.0" xlink:href="#m0d64590c11" y="38.5714285714"/>
      </g>
     </g>
     <g id="text_15">
      <!-- 5 -->
      <g transform="translate(64.1825 40.2270535714)scale(0.06 -0.06)">
       <use xlink:href="#BitstreamVeraSans-Roman-35"/>
      </g>
     </g>
    </g>
    <g id="ytick_5">
     <g id="line2d_12">
      <path clip-path="url(#p4a4edaa8f0)" d="M 72 23.142857  L 144 23.142857  " style="fill:none;stroke:#ffffff;stroke-linecap:square;"/>
     </g>
     <g id="line2d_13">
      <g>
       <use style="stroke:#000000;stroke-width:0.5;" x="72.0" xlink:href="#m0d64590c11" y="23.1428571429"/>
      </g>
     </g>
     <g id="text_16">
      <!-- 10 -->
      <g transform="translate(60.365 24.7984821429)scale(0.06 -0.06)">
       <use xlink:href="#BitstreamVeraSans-Roman-31"/>
       <use x="63.623046875" xlink:href="#BitstreamVeraSans-Roman-30"/>
      </g>
     </g>
    </g>
   </g>
   <g id="text_17">
    <!-- frequency -->
    <defs>
     <path d="M 32.171875 -5.078125  Q 28.375 -14.84375 24.75 -17.8125  Q 21.140625 -20.796875 15.09375 -20.796875  L 7.90625 -20.796875  L 7.90625 -13.28125  L 13.1875 -13.28125  Q 16.890625 -13.28125 18.9375 -11.515625  Q 21 -9.765625 23.484375 -3.21875  L 25.09375 0.875  L 2.984375 54.6875  L 12.5 54.6875  L 29.59375 11.921875  L 46.6875 54.6875  L 56.203125 54.6875  z " id="BitstreamVeraSans-Roman-79"/>
     <path d="M 37.109375 75.984375  L 37.109375 68.5  L 28.515625 68.5  Q 23.6875 68.5 21.796875 66.546875  Q 19.921875 64.59375 19.921875 59.515625  L 19.921875 54.6875  L 34.71875 54.6875  L 34.71875 47.703125  L 19.921875 47.703125  L 19.921875 0  L 10.890625 0  L 10.890625 47.703125  L 2.296875 47.703125  L 2.296875 54.6875  L 10.890625 54.6875  L 10.890625 58.5  Q 10.890625 67.625 15.140625 71.796875  Q 19.390625 75.984375 28.609375 75.984375  z " id="BitstreamVeraSans-Roman-66"/>
     <path d="M 14.796875 27.296875  Q 14.796875 17.390625 18.875 11.75  Q 22.953125 6.109375 30.078125 6.109375  Q 37.203125 6.109375 41.296875 11.75  Q 45.40625 17.390625 45.40625 27.296875  Q 45.40625 37.203125 41.296875 42.84375  Q 37.203125 48.484375 30.078125 48.484375  Q 22.953125 48.484375 18.875 42.84375  Q 14.796875 37.203125 14.796875 27.296875  M 45.40625 8.203125  Q 42.578125 3.328125 38.25 0.953125  Q 33.9375 -1.421875 27.875 -1.421875  Q 17.96875 -1.421875 11.734375 6.484375  Q 5.515625 14.40625 5.515625 27.296875  Q 5.515625 40.1875 11.734375 48.09375  Q 17.96875 56 27.875 56  Q 33.9375 56 38.25 53.625  Q 42.578125 51.265625 45.40625 46.390625  L 45.40625 54.6875  L 54.390625 54.6875  L 54.390625 -20.796875  L 45.40625 -20.796875  z " id="BitstreamVeraSans-Roman-71"/>
    </defs>
    <g transform="translate(41.775 16.775625)scale(0.06 -0.06)">
     <use xlink:href="#BitstreamVeraSans-Roman-66"/>
     <use x="35.205078125" xlink:href="#BitstreamVeraSans-Roman-72"/>
     <use x="76.287109375" xlink:href="#BitstreamVeraSans-Roman-65"/>
     <use x="137.810546875" xlink:href="#BitstreamVeraSans-Roman-71"/>
     <use x="201.287109375" xlink:href="#BitstreamVeraSans-Roman-75"/>
     <use x="264.666015625" xlink:href="#BitstreamVeraSans-Roman-65"/>
     <use x="326.189453125" xlink:href="#BitstreamVeraSans-Roman-6e"/>
     <use x="389.568359375" xlink:href="#BitstreamVeraSans-Roman-63"/>
     <use x="444.548828125" xlink:href="#BitstreamVeraSans-Roman-79"/>
    </g>
   </g>
  </g>
 </g>
 <defs>
  <clipPath id="p4a4edaa8f0">
   <rect height="43.2" width="72.0" x="72.0" y="10.8"/>
  </clipPath>
  <clipPath id="p693a9927f2">
   <rect height="140.4" width="198.0" x="64.8" y="32.4"/>
  </clipPath>
 </defs>
</g>
    <g transform="translate(280, 0) scale(0.5) "><defs>
  <style type="text/css">
*{stroke-linecap:butt;stroke-linejoin:round;stroke-miterlimit:100000;}
  </style>
 </defs>
 <g id="figure_1">
  <g id="patch_1">
   <path d="M 0 432  L 576 432  L 576 0  L 0 0  z " style="fill:#ffffff;"/>
  </g>
  <g id="axes_1">
   <g id="line2d_1">
    <defs>
     <path d="M -3 3  L 3 3  L 3 -3  L -3 -3  z " id="m18379aa368" style="stroke:#000000;stroke-linejoin:miter;stroke-width:0.5;"/>
    </defs>
    <g clip-path="url(#p2772e59ed2)">
     <use style="stroke:#000000;stroke-linejoin:miter;stroke-width:0.5;" x="173.454545455" xlink:href="#m18379aa368" y="121.221818182"/>
     <use style="stroke:#000000;stroke-linejoin:miter;stroke-width:0.5;" x="153.163636364" xlink:href="#m18379aa368" y="135.490909091"/>
     <use style="stroke:#000000;stroke-linejoin:miter;stroke-width:0.5;" x="203.890909091" xlink:href="#m18379aa368" y="127.243636364"/>
     <use style="stroke:#000000;stroke-linejoin:miter;stroke-width:0.5;" x="163.309090909" xlink:href="#m18379aa368" y="111.141818182"/>
     <use style="stroke:#000000;stroke-linejoin:miter;stroke-width:0.5;" x="183.6" xlink:href="#m18379aa368" y="117.425454545"/>
     <use style="stroke:#000000;stroke-linejoin:miter;stroke-width:0.5;" x="214.036363636" xlink:href="#m18379aa368" y="96.0872727273"/>
     <use style="stroke:#000000;stroke-linejoin:miter;stroke-width:0.5;" x="132.872727273" xlink:href="#m18379aa368" y="131.694545455"/>
     <use style="stroke:#000000;stroke-linejoin:miter;stroke-width:0.5;" x="112.581818182" xlink:href="#m18379aa368" y="170.705454545"/>
     <use style="stroke:#000000;stroke-linejoin:miter;stroke-width:0.5;" x="193.745454545" xlink:href="#m18379aa368" y="84.5672727273"/>
     <use style="stroke:#000000;stroke-linejoin:miter;stroke-width:0.5;" x="143.018181818" xlink:href="#m18379aa368" y="163.374545455"/>
     <use style="stroke:#000000;stroke-linejoin:miter;stroke-width:0.5;" x="122.727272727" xlink:href="#m18379aa368" y="152.116363636"/>
    </g>
   </g>
   <g id="line2d_2">
    <path clip-path="url(#p2772e59ed2)" d="M 112.581818 161.018182  L 214.036364 95.563636  " style="fill:none;stroke:#ff0000;stroke-linecap:square;stroke-width:2.0;"/>
   </g>
   <g id="matplotlib.axis_1"/>
   <g id="matplotlib.axis_2"/>
  </g>
  <g id="axes_2">
   <g id="line2d_3">
    <g clip-path="url(#p9875351702)">
     <use style="stroke:#000000;stroke-linejoin:miter;stroke-width:0.5;" x="416.945454545" xlink:href="#m18379aa368" y="106.821818182"/>
     <use style="stroke:#000000;stroke-linejoin:miter;stroke-width:0.5;" x="396.654545455" xlink:href="#m18379aa368" y="119.912727273"/>
     <use style="stroke:#000000;stroke-linejoin:miter;stroke-width:0.5;" x="447.381818182" xlink:href="#m18379aa368" y="112.058181818"/>
     <use style="stroke:#000000;stroke-linejoin:miter;stroke-width:0.5;" x="406.8" xlink:href="#m18379aa368" y="111.665454545"/>
     <use style="stroke:#000000;stroke-linejoin:miter;stroke-width:0.5;" x="427.090909091" xlink:href="#m18379aa368" y="105.250909091"/>
     <use style="stroke:#000000;stroke-linejoin:miter;stroke-width:0.5;" x="457.527272727" xlink:href="#m18379aa368" y="120.436363636"/>
     <use style="stroke:#000000;stroke-linejoin:miter;stroke-width:0.5;" x="376.363636364" xlink:href="#m18379aa368" y="146.225454545"/>
     <use style="stroke:#000000;stroke-linejoin:miter;stroke-width:0.5;" x="356.072727273" xlink:href="#m18379aa368" y="185.890909091"/>
     <use style="stroke:#000000;stroke-linejoin:miter;stroke-width:0.5;" x="437.236363636" xlink:href="#m18379aa368" y="106.952727273"/>
     <use style="stroke:#000000;stroke-linejoin:miter;stroke-width:0.5;" x="386.509090909" xlink:href="#m18379aa368" y="131.432727273"/>
     <use style="stroke:#000000;stroke-linejoin:miter;stroke-width:0.5;" x="366.218181818" xlink:href="#m18379aa368" y="164.421818182"/>
    </g>
   </g>
   <g id="line2d_4">
    <path clip-path="url(#p9875351702)" d="M 356.072727 161.018182  L 457.527273 95.563636  " style="fill:none;stroke:#ff0000;stroke-linecap:square;stroke-width:2.0;"/>
   </g>
   <g id="matplotlib.axis_3"/>
   <g id="matplotlib.axis_4"/>
  </g>
  <g id="axes_3">
   <g id="line2d_5">
    <g clip-path="url(#p435722e88b)">
     <use style="stroke:#000000;stroke-linejoin:miter;stroke-width:0.5;" x="173.454545455" xlink:href="#m18379aa368" y="317.323636364"/>
     <use style="stroke:#000000;stroke-linejoin:miter;stroke-width:0.5;" x="153.163636364" xlink:href="#m18379aa368" y="326.356363636"/>
     <use style="stroke:#000000;stroke-linejoin:miter;stroke-width:0.5;" x="203.890909091" xlink:href="#m18379aa368" y="248.203636364"/>
     <use style="stroke:#000000;stroke-linejoin:miter;stroke-width:0.5;" x="163.309090909" xlink:href="#m18379aa368" y="321.905454545"/>
     <use style="stroke:#000000;stroke-linejoin:miter;stroke-width:0.5;" x="183.6" xlink:href="#m18379aa368" y="312.741818182"/>
     <use style="stroke:#000000;stroke-linejoin:miter;stroke-width:0.5;" x="214.036363636" xlink:href="#m18379aa368" y="299.258181818"/>
     <use style="stroke:#000000;stroke-linejoin:miter;stroke-width:0.5;" x="132.872727273" xlink:href="#m18379aa368" y="335.389090909"/>
     <use style="stroke:#000000;stroke-linejoin:miter;stroke-width:0.5;" x="112.581818182" xlink:href="#m18379aa368" y="344.421818182"/>
     <use style="stroke:#000000;stroke-linejoin:miter;stroke-width:0.5;" x="193.745454545" xlink:href="#m18379aa368" y="308.290909091"/>
     <use style="stroke:#000000;stroke-linejoin:miter;stroke-width:0.5;" x="143.018181818" xlink:href="#m18379aa368" y="330.938181818"/>
     <use style="stroke:#000000;stroke-linejoin:miter;stroke-width:0.5;" x="122.727272727" xlink:href="#m18379aa368" y="339.970909091"/>
    </g>
   </g>
   <g id="line2d_6">
    <path clip-path="url(#p435722e88b)" d="M 112.581818 349.527273  L 214.036364 284.072727  " style="fill:none;stroke:#ff0000;stroke-linecap:square;stroke-width:2.0;"/>
   </g>
   <g id="matplotlib.axis_5"/>
   <g id="matplotlib.axis_6"/>
  </g>
  <g id="axes_4">
   <g id="line2d_7">
    <g clip-path="url(#pc704e5a785)">
     <use style="stroke:#000000;stroke-linejoin:miter;stroke-width:0.5;" x="396.654545455" xlink:href="#m18379aa368" y="328.843636364"/>
     <use style="stroke:#000000;stroke-linejoin:miter;stroke-width:0.5;" x="396.654545455" xlink:href="#m18379aa368" y="339.578181818"/>
     <use style="stroke:#000000;stroke-linejoin:miter;stroke-width:0.5;" x="396.654545455" xlink:href="#m18379aa368" y="314.050909091"/>
     <use style="stroke:#000000;stroke-linejoin:miter;stroke-width:0.5;" x="396.654545455" xlink:href="#m18379aa368" y="299.258181818"/>
     <use style="stroke:#000000;stroke-linejoin:miter;stroke-width:0.5;" x="396.654545455" xlink:href="#m18379aa368" y="304.101818182"/>
     <use style="stroke:#000000;stroke-linejoin:miter;stroke-width:0.5;" x="396.654545455" xlink:href="#m18379aa368" y="322.821818182"/>
     <use style="stroke:#000000;stroke-linejoin:miter;stroke-width:0.5;" x="396.654545455" xlink:href="#m18379aa368" y="346.254545455"/>
     <use style="stroke:#000000;stroke-linejoin:miter;stroke-width:0.5;" x="508.254545455" xlink:href="#m18379aa368" y="251.345454545"/>
     <use style="stroke:#000000;stroke-linejoin:miter;stroke-width:0.5;" x="396.654545455" xlink:href="#m18379aa368" y="342.196363636"/>
     <use style="stroke:#000000;stroke-linejoin:miter;stroke-width:0.5;" x="396.654545455" xlink:href="#m18379aa368" y="311.432727273"/>
     <use style="stroke:#000000;stroke-linejoin:miter;stroke-width:0.5;" x="396.654545455" xlink:href="#m18379aa368" y="324.785454545"/>
    </g>
   </g>
   <g id="line2d_8">
    <path clip-path="url(#pc704e5a785)" d="M 396.654545 323.345455  L 508.254545 251.345455  " style="fill:none;stroke:#ff0000;stroke-linecap:square;stroke-width:2.0;"/>
   </g>
   <g id="matplotlib.axis_7"/>
   <g id="matplotlib.axis_8"/>
  </g>
 </g>
 <defs>
  <clipPath id="p435722e88b">
   <rect height="157.090909091" width="202.909090909" x="72.0" y="231.709090909"/>
  </clipPath>
  <clipPath id="pc704e5a785">
   <rect height="157.090909091" width="202.909090909" x="315.490909091" y="231.709090909"/>
  </clipPath>
  <clipPath id="p9875351702">
   <rect height="157.090909091" width="202.909090909" x="315.490909091" y="43.2"/>
  </clipPath>
  <clipPath id="p2772e59ed2">
   <rect height="157.090909091" width="202.909090909" x="72.0" y="43.2"/>
  </clipPath>
 </defs>
</g>
  </g>
  <g>
    <text font-family="Verdana" font-size="12" font-weight="bold" letter-spacing="0" x="25" y="20">A</text>
    <text font-family="Verdana" font-size="12" font-weight="bold" letter-spacing="0" x="305" y="20">B</text>
  </g>
</svg>
